<svg xmlns="http://www.w3.org/2000/svg" viewBox="0 0 1000 1200">
  <defs>
    <linearGradient id="sky" x1="0" y1="0" x2="1" y2="1">
      <stop stop-color="#dbe9e9"/>
      <stop offset="1" stop-color="#8eb4ba"/>
    </linearGradient>
    <linearGradient id="glass" x1="0" y1="0" x2="0" y2="1">
      <stop stop-color="#436168"/>
      <stop offset="1" stop-color="#182c31"/>
    </linearGradient>
  </defs>
  <rect width="1000" height="1200" fill="url(#sky)"/>
  <rect y="350" width="1000" height="700" fill="#d9d3c7"/>
  <rect x="82" y="440" width="836" height="410" fill="url(#glass)"/>
  <rect x="110" y="470" width="230" height="350" fill="#668088"/>
  <rect x="376" y="470" width="230" height="350" fill="#536f76"/>
  <rect x="642" y="470" width="248" height="350" fill="#638087"/>
  <path d="M0 1050h1000v150H0z" fill="#9a9b91"/>
  <rect x="225" y="270" width="550" height="170" rx="4" fill="#f9faf8"/>
  <path d="M330 390c38-106 72-130 108-34-9-70 6-121 42-149 12 81 2 151-28 211" fill="none" stroke="#1598aa" stroke-width="18"/>
  <text x="505" y="365" fill="#101617" font-family="Arial,sans-serif" font-size="70" font-weight="700" text-anchor="middle">YOUR BRAND</text>
  <rect x="0" y="1050" width="1000" height="6" fill="#6c8d5b"/>
</svg>
