<svg xmlns="http://www.w3.org/2000/svg" viewBox="0 0 1200 700">
  <defs>
    <linearGradient id="sky" x1="0" y1="0" x2="0" y2="1">
      <stop stop-color="#c8e1e4"/>
      <stop offset="1" stop-color="#edf1ed"/>
    </linearGradient>
  </defs>
  <rect width="1200" height="700" fill="url(#sky)"/>
  <path d="M0 535h1200v165H0z" fill="#676d6d"/>
  <path d="M0 565h1200" stroke="#d5d28d" stroke-width="8" stroke-dasharray="90 55"/>
  <path d="M140 490v-210c0-35 28-63 63-63h550l215 128h84c30 0 54 24 54 54v91Z" fill="#f8faf8"/>
  <path d="M210 250h480v205H210z" fill="#1594a7"/>
  <path d="m690 250 215 105H690Z" fill="#24464d"/>
  <path d="M210 455h755" stroke="#76a63e" stroke-width="18"/>
  <text x="450" y="365" fill="#fff" font-family="Arial,sans-serif" font-size="72" font-weight="700" text-anchor="middle">SIGNWISE</text>
  <text x="450" y="412" fill="#d8eff1" font-family="Arial,sans-serif" font-size="25" letter-spacing="6" text-anchor="middle">SIGNS &amp; GRAPHICS</text>
  <circle cx="310" cy="500" r="72" fill="#1a2426"/>
  <circle cx="310" cy="500" r="30" fill="#c3c9c7"/>
  <circle cx="940" cy="500" r="72" fill="#1a2426"/>
  <circle cx="940" cy="500" r="30" fill="#c3c9c7"/>
</svg>
